<svg id="Capa_1" enable-background="new 0 0 497 497" height="512" viewBox="0 0 497 497" width="512" xmlns="http://www.w3.org/2000/svg"><g><path d="m104.809 126.142h361.88c11.218 0 20.311 9.094 20.311 20.311v235.427c0 11.218-9.094 20.311-20.311 20.311h-125.095c-5.523 0-10 4.477-10 10v52.191c0 4.661-5.815 6.787-8.821 3.225l-52.216-61.866c-1.9-2.251-4.696-3.55-7.642-3.55h-158.106c-11.218 0-20.311-9.094-20.311-20.311v-235.426c0-11.218 9.093-20.312 20.311-20.312z" fill="#ea7bc1"/><g><path d="m450.147 365.311h-203.181c-4.143 0-7.5-3.358-7.5-7.5s3.357-7.5 7.5-7.5h203.181c4.143 0 7.5 3.358 7.5 7.5s-3.358 7.5-7.5 7.5z" fill="#f9f6f9"/></g><g><path d="m476.689 126.142h-26.542c11.217 0 20.311 9.094 20.311 20.311v235.427c0 11.218-9.094 20.311-20.311 20.311h26.542c11.218 0 20.311-9.094 20.311-20.311v-235.426c0-11.218-9.094-20.312-20.311-20.312z" fill="#ea5bb1"/></g><g><path d="m382.191 27.608h-361.88c-11.217 0-20.311 9.093-20.311 20.311v235.426c0 11.218 9.094 20.311 20.311 20.311h135.094c5.523 0 10 4.477 10 10v52.191c0 4.661 5.815 6.787 8.821 3.225l52.216-61.866c1.9-2.251 4.696-3.55 7.642-3.55h148.107c11.218 0 20.311-9.094 20.311-20.311v-235.426c0-11.218-9.093-20.311-20.311-20.311z" fill="#ade4a4"/></g><g><path d="m392.191 27.608h-26.542c11.217 0 20.311 9.094 20.311 20.311v235.426c0 11.218-9.094 20.311-20.311 20.311h26.542c11.217 0 20.311-9.094 20.311-20.311v-235.426c0-11.218-9.094-20.311-20.311-20.311z" fill="#8bd5a7"/></g><g fill="#f9f6f9"><path d="m181.567 107.588c-.025-.069-.053-.137-.08-.205-1.562-3.796-5.221-6.248-9.325-6.248-.003 0-.007 0-.01 0-4.108.004-7.768 2.463-9.323 6.266-.023.057-.046.113-.067.17l-42.805 112.387c-1.475 3.871.469 8.204 4.34 9.678 3.865 1.472 8.203-.469 9.678-4.339l8.821-23.16h58.422l8.732 23.138c1.133 3.003 3.987 4.854 7.018 4.854.88 0 1.775-.156 2.648-.485 3.875-1.463 5.831-5.79 4.368-9.665zm-33.059 79.55 23.632-62.047 23.416 62.047z"/><path d="m96.966 101.553h-45.863c-4.143 0-7.5 3.358-7.5 7.5v113.158c0 4.142 3.357 7.5 7.5 7.5s7.5-3.358 7.5-7.5v-50.151h34.721c4.143 0 7.5-3.358 7.5-7.5s-3.357-7.5-7.5-7.5h-34.721v-40.507h38.363c4.143 0 7.5-3.358 7.5-7.5s-3.358-7.5-7.5-7.5z"/><path d="m366.703 216.865-11.776-11.775c8.47-10.916 13.532-24.602 13.532-39.457 0-35.563-28.933-64.497-64.496-64.497s-64.497 28.933-64.497 64.497c0 35.563 28.934 64.496 64.497 64.496 15.314 0 29.391-5.375 40.466-14.324l11.667 11.667c1.465 1.464 3.385 2.197 5.304 2.197s3.839-.732 5.304-2.197c2.928-2.93 2.928-7.679-.001-10.607zm-62.74-1.737c-27.293 0-49.497-22.204-49.497-49.496s22.204-49.497 49.497-49.497c27.292 0 49.496 22.204 49.496 49.497 0 10.715-3.433 20.636-9.242 28.747l-13.982-13.982c-2.93-2.929-7.678-2.929-10.608 0-2.929 2.929-2.929 7.678 0 10.606l14.125 14.125c-8.293 6.273-18.613 10-29.789 10z"/></g></g></svg>