<svg id="Capa_1" enable-background="new 0 0 497 497" height="512" viewBox="0 0 497 497" width="512" xmlns="http://www.w3.org/2000/svg"><g><path d="m64.576 163.514v305.109c0 5.523 4.477 10 10 10h347.847c5.523 0 10-4.477 10-10v-305.109l-184.59-110.44z" fill="#f9f6f9"/><path d="m402.424 145.565v323.058c0 5.523-4.477 10-10 10h30c5.523 0 10-4.477 10-10v-305.109z" fill="#dedbec"/><path d="m166.971 439.302v-220.275c0-5.523 4.477-10 10-10h133.057c5.523 0 10 4.477 10 10v230.275z" fill="#95c7f8"/><path d="m320.029 209.027h-27c5.523 0 10 4.477 10 10v230.275l27-10v-220.275c0-5.523-4.477-10-10-10z" fill="#75b5f8"/><g><path d="m466.748 237.413c-6.161 0-12.376-1.877-17.741-5.775l-200.507-145.676-200.507 145.677c-13.502 9.812-32.405 6.818-42.218-6.687-9.812-13.505-6.818-32.407 6.687-42.218l205.061-148.986 13.212-7.599c10.593-7.697 24.938-7.697 35.531 0l216.273 157.584c13.504 9.812 17.498 26.714 7.687 40.218-5.139 7.074-11.774 12.264-19.819 13.24-1.213.148-2.435.222-3.659.222z" fill="#ea7bc1"/></g><g><path d="m484.539 182.733-218.274-158.584c-10.593-7.697-24.938-7.697-35.531 0l-13.212 9.599c8.935-2.778 18.873-1.317 26.743 4.401l218.273 158.584c12.927 9.392 16.214 27.11 7.867 40.454 8.046-.976 15.681-5.162 20.82-12.236 9.812-13.504 6.818-32.406-6.686-42.218z" fill="#ea5bb1"/></g><path d="m133.965 478.623v-29.321c0-5.523 4.477-10 10-10h190.07c5.523 0 10 4.477 10 10l-8 29.321z" fill="#ffe187"/><path d="m353.035 439.302h-27c5.523 0 10 4.477 10 10v29.321h27v-29.321c0-5.523-4.477-10-10-10z" fill="#ffd26f"/><g fill="#f9f6f9"><path d="m206.933 356.373c-4.142 0-7.5-3.358-7.5-7.5 0-4.142 3.358-7.5 7.5-7.5 4.142 0 7.5 3.358 7.5 7.5 0 4.142-3.358 7.5-7.5 7.5z"/><path d="m280.067 307.321h-63.135c-5.523 0-10-4.477-10-10v-38.373c0-5.523 4.477-10 10-10h63.135c5.523 0 10 4.477 10 10v38.373c0 5.523-4.477 10-10 10z"/></g></g></svg>