<?xml version="1.0" encoding="iso-8859-1"?>
<!-- Generator: Adobe Illustrator 19.0.0, SVG Export Plug-In . SVG Version: 6.00 Build 0)  -->
<svg version="1.1" id="Layer_1" xmlns="http://www.w3.org/2000/svg" xmlns:xlink="http://www.w3.org/1999/xlink" x="0px" y="0px"
	 viewBox="0 0 511.999 511.999" style="enable-background:new 0 0 511.999 511.999;" xml:space="preserve">
<path style="fill:#666666;" d="M473.419,424.724h-5.212v-25.28c0-4.797-3.888-8.687-8.686-8.687s-8.687,3.889-8.687,8.687v25.28
	h-5.212c-4.798,0-8.687,3.889-8.687,8.686c0,4.797,3.888,8.687,8.687,8.687h5.212v61.216c0,4.797,3.888,8.686,8.687,8.686
	s8.686-3.889,8.686-8.686v-61.216h5.212c4.798,0,8.686-3.889,8.686-8.687C482.105,428.613,478.217,424.724,473.419,424.724z"/>
<g>
	<rect x="12.525" y="122.7" style="fill:#999999;" width="41.109" height="71.357"/>
	<path style="fill:#999999;" d="M92.904,186.099l-4.504-4.504c-17.213-17.213-15.43-43.165-15.346-44.262l0.489-6.352l12.703,0.978
		l-0.488,6.34c-0.029,0.44-1.287,21.35,11.651,34.287l4.504,4.504L92.904,186.099z"/>
</g>
<g>
	<circle style="fill:#C0E7F9;" cx="471.028" cy="239.991" r="17.373"/>
	<circle style="fill:#C0E7F9;" cx="86.505" cy="399.521" r="17.373"/>
	<circle style="fill:#C0E7F9;" cx="91.15" cy="448.085" r="8.777"/>
	<circle style="fill:#C0E7F9;" cx="430.503" cy="218.483" r="8.777"/>
	<circle style="fill:#C0E7F9;" cx="98.087" cy="55.848" r="17.373"/>
	<circle style="fill:#C0E7F9;" cx="458.346" cy="167.893" r="28.665"/>
	<circle style="fill:#C0E7F9;" cx="37.863" cy="455.706" r="28.665"/>
</g>
<path style="fill:#5D9EBA;" d="M388.802,398.166v105.141H136.314V398.166c0-31.086,19.805-57.551,47.486-67.454
	c7.54-2.699,15.67-4.17,24.137-4.17h109.23c8.478,0,16.597,1.471,24.148,4.17C368.996,340.627,388.802,367.08,388.802,398.166z"/>
<path style="fill:#508DA3;" d="M238.954,326.543c-39.564,0-71.635,32.071-71.635,71.623v105.141h-31.005V398.166
	c0-31.086,19.805-57.551,47.486-67.454c7.54-2.699,15.67-4.17,24.137-4.17H238.954z"/>
<path style="fill:#666666;" d="M341.315,330.713v172.595H183.8V330.713c7.54-2.699,15.67-4.17,24.137-4.17h109.23
	C325.645,326.543,333.764,328.014,341.315,330.713z"/>
<g>
	<path style="fill:#E0B394;" d="M140.459,228.639c-14.362-0.637-25.793-12.485-25.793-26.998c0-14.918,12.092-27.021,27.021-27.021
		c1.344,0,2.664,0.093,3.961,0.29L140.459,228.639z"/>
	<path style="fill:#E0B394;" d="M384.631,228.639c14.362-0.637,25.805-12.485,25.805-26.998c0-14.918-12.103-27.021-27.032-27.021
		c-1.344,0-2.675,0.104-3.961,0.29L384.631,228.639z"/>
</g>
<path style="fill:#508DA3;" d="M312.956,303.252v64.345c0,27.833-22.568,50.4-50.4,50.4c-27.842,0-50.4-22.568-50.4-50.4v-64.345
	H312.956z"/>
<path style="fill:#E0B394;" d="M312.956,262.329v64.345c0,27.833-22.568,50.4-50.4,50.4c-27.842,0-50.4-22.568-50.4-50.4v-64.345
	H312.956L312.956,262.329z"/>
<path style="fill:#F7CBA4;" d="M223.462,345.437l-47.543-34.542c-25.124-18.253-38.715-48.438-35.728-79.35l8.246-85.334
	c5.68-58.773,55.069-103.62,114.115-103.62l0,0c59.046,0,108.435,44.847,114.115,103.62l8.246,85.334
	c2.987,30.911-10.603,61.095-35.728,79.35l-47.543,34.542C278.332,362.372,246.77,362.372,223.462,345.437z"/>
<path style="fill:#E8BA97;" d="M169.777,248.363c-0.799,13.516,3.602,26.812,12.312,37.178l49.69,61.06
	c2.594,3.092,5.536,5.687,8.721,7.76c-5.976-2.085-11.721-5.073-17.037-8.93l-47.544-34.538
	c-25.121-18.253-38.707-48.436-35.719-79.348l8.235-85.336c5.629-58.2,54.111-102.744,112.403-103.589
	c-35.904,0.869-76.561,34.711-78.68,70.754L169.777,248.363z"/>
<g>
	<path style="fill:#4D4D4D;" d="M210.991,234.269c-4.797,0-8.686-3.889-8.686-8.687v-13.894c0-4.797,3.889-8.687,8.686-8.687
		c4.797,0,8.687,3.889,8.687,8.687v13.894C219.678,230.38,215.788,234.269,210.991,234.269z"/>
	<path style="fill:#4D4D4D;" d="M314.112,234.269c-4.798,0-8.687-3.889-8.687-8.687v-13.894c0-4.797,3.888-8.687,8.687-8.687
		s8.686,3.889,8.686,8.687v13.894C322.798,230.38,318.909,234.269,314.112,234.269z"/>
</g>
<path style="fill:#E6E6E6;" d="M373.096,71.044c0,5.675-2.305,10.806-6.023,14.535c-3.718,3.706-8.86,6.011-14.535,6.011
	c-51.528-18.554-107.354-20.662-159.866-6.335c-6.764,1.83-13.47,3.949-20.106,6.335c-11.35,0-20.558-9.196-20.558-20.546
	s9.208-20.558,20.558-20.558c2.513,0,4.922,0.475,7.158,1.309c3.764-10.794,13.551-18.774,25.33-19.909
	c0.961-0.104,1.934-0.151,2.919-0.151c3.671,0,7.181,0.66,10.435,1.876C223.746,14.234,241.478,0,262.546,0
	c21.079,0,38.811,14.234,44.151,33.611c3.255-1.216,6.764-1.876,10.435-1.876c13.065,0,24.172,8.385,28.249,20.06
	c2.235-0.834,4.644-1.309,7.158-1.309C363.889,50.486,373.096,59.694,373.096,71.044z"/>
<path style="fill:#CCCCCC;" d="M192.672,85.255c-6.764,1.83-13.47,3.949-20.106,6.335c-11.35,0-20.558-9.196-20.558-20.546
	s9.208-20.558,20.558-20.558c2.513,0,4.922,0.475,7.158,1.309c3.764-10.794,13.551-18.774,25.33-19.909
	C198.301,46.838,191.363,67.129,192.672,85.255z"/>
<path style="fill:#666666;" d="M378.042,160.446c-54.771,0-85.371-58.281-85.371-58.281s-25.573,47.313-113.724,46.189
	c-9.439-0.116-19.585-0.799-30.507-2.143c1.969-20.442,9.242-39.194,20.361-54.968c1.216,0.232,2.479,0.347,3.764,0.347
	c6.162-2.224,12.381-4.204,18.659-5.942c52.93-14.767,109.311-12.775,161.314,5.942c1.286,0,2.548-0.116,3.764-0.347
	c11.119,15.775,18.392,34.526,20.361,54.968L378.042,160.446z"/>
<path style="fill:#4D4D4D;" d="M191.224,85.649c-5.212,8.698-8.501,18.137-9.069,27.727l-3.208,34.978
	c-9.439-0.116-19.585-0.799-30.507-2.143c1.969-20.442,9.242-39.194,20.361-54.968c1.216,0.232,2.479,0.347,3.764,0.347
	C178.727,89.367,184.947,87.386,191.224,85.649z"/>
<rect x="209.24" y="463.535" style="fill:#E6E6E6;" width="106.624" height="39.784"/>
<path style="fill:#EA8249;" d="M509.903,284.408v79.348c0,27.82-22.562,50.37-50.382,50.37s-50.382-22.55-50.382-50.37v-79.348
	H509.903z"/>
<g>
	<polygon style="fill:#D36F3D;" points="442.345,284.408 434.62,358.533 426.895,284.408 	"/>
	<polygon style="fill:#D36F3D;" points="470.86,284.408 463.575,332.473 456.29,284.408 	"/>
</g>
<path style="fill:#E6E6E6;" d="M38.91,101.007h69.947v36.815H2.096l0,0C2.096,117.489,18.578,101.007,38.91,101.007z"/>
<path style="fill:#F76B4F;" d="M24.663,348.391h53.86c6.704,0,12.137-5.434,12.137-12.137V221.987
	c0-23.779-19.277-43.055-43.055-43.055H12.527v157.324C12.527,342.957,17.961,348.391,24.663,348.391z"/>
<path style="fill:#E5624C;" d="M33.374,336.253V178.93H12.527v157.323c0,6.704,5.434,12.137,12.137,12.137h20.848
	C38.808,348.391,33.374,342.957,33.374,336.253z"/>
<path style="fill:#E0B394;" d="M271.631,235.645h-0.395v-17.952c0-4.797-3.888-8.687-8.687-8.687s-8.686,3.889-8.686,8.687v17.952
	h-0.395c-4.798,0-8.687,3.889-8.687,8.687c0,4.797,3.888,8.686,8.687,8.686h18.163c4.798,0,8.687-3.889,8.687-8.686
	C280.318,239.534,276.428,235.645,271.631,235.645z"/>
<path style="fill:#F2F2F2;" d="M307.892,281.304c0,0-0.66,1.621-2.05,4.181c-0.336,0.66-0.73,1.355-1.17,2.108
	c-0.521,0.741-1.123,1.494-1.772,2.34s-1.39,1.703-2.177,2.652c-0.278,0.359-0.579,0.66-0.903,0.973
	c-0.116,0.116-0.243,0.232-0.371,0.347c-0.452,0.417-0.915,0.857-1.39,1.297c-0.95,0.892-1.981,1.772-3.058,2.699
	c-1.135,0.834-2.351,1.621-3.602,2.479c-0.625,0.429-1.274,0.845-1.934,1.262c-0.66,0.394-1.367,0.718-2.085,1.077
	c-1.413,0.718-2.884,1.413-4.401,2.108c-3.127,1.066-6.382,2.316-9.856,2.838c-3.428,0.799-7.007,0.927-10.574,1.1
	c-3.567-0.174-7.146-0.29-10.574-1.089c-3.475-0.521-6.729-1.772-9.856-2.838c-1.517-0.683-2.988-1.378-4.413-2.096
	c-0.707-0.359-1.413-0.683-2.085-1.077c-0.649-0.429-1.297-0.834-1.923-1.262c-1.251-0.857-2.479-1.656-3.614-2.479
	c-1.077-0.927-2.096-1.818-3.058-2.699c-0.475-0.452-0.927-0.88-1.378-1.309c-0.162-0.151-0.324-0.301-0.486-0.452
	c-0.278-0.278-0.544-0.544-0.776-0.857c-0.753-0.915-1.482-1.76-2.12-2.594c-0.625-0.845-1.239-1.587-1.749-2.328
	c-0.463-0.788-0.892-1.506-1.251-2.166c-1.448-2.641-2.05-4.216-2.05-4.216s1.714,0.521,4.355,1.587
	c0.672,0.255,1.367,0.568,2.143,0.88c0.822,0.243,1.668,0.556,2.571,0.857c0.915,0.301,1.83,0.672,2.803,1.019
	c0.961,0.371,2.05,0.614,3.127,0.938c1.077,0.313,2.154,0.695,3.278,1.031c1.17,0.255,2.34,0.556,3.544,0.845
	c0.602,0.139,1.193,0.313,1.795,0.475c0.614,0.139,1.251,0.22,1.876,0.347c1.262,0.22,2.525,0.475,3.787,0.764
	c2.629,0.243,5.223,0.822,7.934,0.927c2.675,0.347,5.409,0.255,8.119,0.417c2.722-0.162,5.455-0.058,8.131-0.405
	c2.71-0.093,5.305-0.683,7.934-0.927c1.262-0.278,2.525-0.533,3.787-0.753c0.625-0.127,1.262-0.208,1.876-0.347
	c0.602-0.174,1.205-0.336,1.795-0.475c1.205-0.29,2.374-0.602,3.544-0.845c1.135-0.336,2.212-0.718,3.289-1.031
	c1.066-0.324,2.177-0.579,3.104-0.938c0.95-0.324,1.842-0.683,2.745-0.961c0.892-0.301,1.726-0.602,2.548-0.845
	c0.811-0.347,1.529-0.683,2.212-0.95C306.213,281.79,307.892,281.304,307.892,281.304z"/>
<path style="fill:#4D4D4D;" d="M299.819,293.558c-0.116,0.116-0.243,0.232-0.371,0.347c-0.452,0.417-0.915,0.857-1.39,1.297
	c-0.95,0.892-1.981,1.772-3.058,2.699c-1.135,0.834-2.351,1.621-3.602,2.479c-0.625,0.429-1.274,0.845-1.934,1.262
	c-0.66,0.394-1.367,0.718-2.085,1.077c-1.413,0.718-2.884,1.413-4.401,2.108c-3.127,1.066-6.382,2.316-9.856,2.838
	c-3.428,0.799-7.007,0.927-10.574,1.1c-3.567-0.174-7.146-0.29-10.574-1.089c-3.475-0.521-6.729-1.772-9.856-2.838
	c-1.517-0.683-2.988-1.378-4.413-2.096c-0.707-0.359-1.413-0.683-2.085-1.077c-0.649-0.429-1.297-0.834-1.923-1.262
	c-1.251-0.857-2.479-1.656-3.614-2.479c-1.077-0.927-2.096-1.818-3.058-2.699c-0.475-0.452-0.927-0.88-1.378-1.309
	c-0.162-0.151-0.324-0.301-0.486-0.452c0.371,0.127,0.741,0.255,1.123,0.382c0.915,0.301,1.83,0.66,2.803,1.008
	c0.961,0.382,2.05,0.625,3.127,0.95c1.077,0.313,2.154,0.683,3.278,1.031c1.17,0.243,2.34,0.556,3.544,0.846
	c0.602,0.139,1.193,0.301,1.795,0.463c0.614,0.139,1.251,0.22,1.876,0.347c1.262,0.22,2.525,0.486,3.787,0.764
	c2.629,0.255,5.223,0.834,7.934,0.927c2.675,0.359,5.409,0.255,8.119,0.429c2.722-0.162,5.455-0.058,8.131-0.417
	c2.71-0.093,5.305-0.672,7.934-0.915c1.262-0.278,2.525-0.544,3.787-0.764c0.625-0.127,1.262-0.208,1.876-0.347
	c0.602-0.162,1.205-0.324,1.795-0.463c1.205-0.29,2.374-0.602,3.544-0.845c1.135-0.347,2.212-0.73,3.289-1.031
	c1.066-0.324,2.177-0.591,3.104-0.938c0.95-0.336,1.842-0.683,2.745-0.973C299.113,293.801,299.472,293.673,299.819,293.558z"/>
<g>
	<path style="fill:#666666;" d="M294.251,186.338c0,0,0.023-0.23,0.101-0.627c0.089-0.383,0.18-0.989,0.374-1.675
		c0.087-0.354,0.199-0.724,0.328-1.13c0.168-0.412,0.394-0.827,0.634-1.297c0.237-0.473,0.537-0.939,0.852-1.464
		c0.317-0.533,0.696-0.937,1.084-1.451c0.394-0.495,0.837-0.973,1.301-1.487c0.49-0.464,1.022-0.922,1.587-1.382
		c1.106-0.974,2.458-1.678,3.866-2.461c1.457-0.616,3.003-1.284,4.659-1.594c1.64-0.426,3.36-0.527,5.075-0.607
		c1.715,0.079,3.436,0.17,5.078,0.594c1.657,0.306,3.205,0.978,4.663,1.589c1.41,0.782,2.762,1.485,3.87,2.46
		c0.564,0.461,1.097,0.92,1.588,1.382c0.463,0.515,0.905,0.998,1.301,1.489c0.382,0.512,0.779,0.932,1.07,1.444
		c0.292,0.51,0.574,0.966,0.804,1.428c0.228,0.463,0.449,0.871,0.616,1.282c0.152,0.429,0.286,0.817,0.386,1.184
		c0.22,0.71,0.312,1.32,0.396,1.703c0.074,0.395,0.09,0.62,0.09,0.62s-0.24-0.006-0.645-0.045c-0.394-0.051-1.005-0.076-1.681-0.175
		c-0.35-0.036-0.707-0.101-1.099-0.153c-0.418-0.02-0.83-0.078-1.279-0.112c-0.879-0.093-1.796-0.23-2.805-0.27
		c-0.496-0.032-0.976-0.104-1.479-0.146c-0.52-0.007-1.033-0.034-1.543-0.072c-0.998-0.13-2.084-0.053-3.091-0.18
		c-1.06,0.038-2.074-0.091-3.125-0.059c-1.033-0.078-2.078,0.005-3.114-0.068c-1.037,0.071-2.081-0.02-3.117,0.056
		c-1.052-0.037-2.066,0.097-3.128,0.054c-1.009,0.125-2.096,0.047-3.095,0.178c-0.51,0.038-1.023,0.066-1.544,0.072
		c-0.503,0.042-0.981,0.118-1.479,0.148c-1.029,0.056-1.883,0.153-2.741,0.227c-0.451,0.035-0.872,0.067-1.262,0.096
		c-0.416,0.075-0.796,0.159-1.157,0.206c-0.701,0.124-1.313,0.153-1.703,0.203C294.482,186.338,294.251,186.338,294.251,186.338z"/>
	<path style="fill:#666666;" d="M191.131,186.338c0,0,0.023-0.23,0.101-0.627c0.089-0.383,0.18-0.989,0.374-1.675
		c0.087-0.354,0.199-0.724,0.328-1.13c0.168-0.412,0.394-0.827,0.634-1.297c0.237-0.473,0.537-0.939,0.852-1.464
		c0.317-0.533,0.696-0.937,1.084-1.451c0.394-0.495,0.837-0.973,1.301-1.487c0.49-0.464,1.022-0.922,1.587-1.382
		c1.106-0.974,2.458-1.678,3.866-2.461c1.457-0.616,3.003-1.284,4.659-1.594c1.64-0.426,3.36-0.527,5.075-0.607
		c1.715,0.079,3.436,0.17,5.078,0.594c1.657,0.306,3.205,0.978,4.663,1.589c1.41,0.782,2.762,1.485,3.87,2.46
		c0.564,0.461,1.097,0.92,1.588,1.382c0.463,0.515,0.905,0.998,1.301,1.489c0.382,0.512,0.779,0.932,1.07,1.444
		c0.292,0.51,0.574,0.966,0.804,1.428c0.228,0.463,0.449,0.871,0.616,1.282c0.152,0.429,0.286,0.817,0.386,1.184
		c0.22,0.71,0.312,1.32,0.396,1.703c0.074,0.395,0.09,0.62,0.09,0.62s-0.24-0.006-0.645-0.045c-0.394-0.051-1.005-0.076-1.681-0.175
		c-0.35-0.036-0.707-0.101-1.099-0.153c-0.418-0.02-0.83-0.078-1.279-0.112c-0.879-0.093-1.796-0.23-2.805-0.27
		c-0.496-0.032-0.976-0.104-1.479-0.146c-0.52-0.007-1.033-0.034-1.543-0.072c-0.998-0.13-2.084-0.053-3.091-0.18
		c-1.06,0.038-2.074-0.091-3.125-0.059c-1.033-0.078-2.078,0.005-3.114-0.068c-1.037,0.071-2.081-0.02-3.117,0.056
		c-1.052-0.037-2.066,0.097-3.128,0.054c-1.009,0.125-2.096,0.047-3.095,0.178c-0.51,0.038-1.023,0.066-1.544,0.072
		c-0.503,0.042-0.981,0.118-1.479,0.148c-1.028,0.056-1.883,0.153-2.741,0.227c-0.451,0.035-0.872,0.067-1.262,0.096
		c-0.416,0.075-0.796,0.159-1.157,0.206c-0.701,0.124-1.313,0.153-1.703,0.203C191.363,186.338,191.131,186.338,191.131,186.338z"/>
</g>
<g>
</g>
<g>
</g>
<g>
</g>
<g>
</g>
<g>
</g>
<g>
</g>
<g>
</g>
<g>
</g>
<g>
</g>
<g>
</g>
<g>
</g>
<g>
</g>
<g>
</g>
<g>
</g>
<g>
</g>
</svg>
