<svg id="Flat" enable-background="new 0 0 64 64" height="512" viewBox="0 0 64 64" width="512" xmlns="http://www.w3.org/2000/svg"><path d="m37.4 20.8-.907-1.814c-.328-.656-.567-1.352-.711-2.071l-.009-.048c-.49-2.447.155-4.983 1.752-6.9 1.568-1.881 3.891-2.968 6.34-2.967h1.32c.542 0 1.084.045 1.619.134l.818.136c2.784.464 5.235 2.101 6.73 4.494 1.664 2.662 1.959 5.959.793 8.874l-.145.362.706 1.765c.763 1.909.151 4.093-1.494 5.326-.787.59-1.744.909-2.728.909h-3.225c-.824 0-1.632-.224-2.339-.648l-3.44-2.064c-.321-.192-.616-.423-.88-.688l-2.657-2.657c-.626-.627-1.147-1.35-1.543-2.143z" fill="#808080"/><path d="m4 32h28v28h-28z" fill="#039791"/><path d="m4 4h28v28h-28z" fill="#03aaa5"/><path d="m32 32h28v28h-28z" fill="#03aaa5"/><path d="m32 20c-6.627 0-12 5.373-12 12h-5c.01-9.385 7.615-16.99 17-17z" fill="#039791"/><path d="m20 32c0 6.627 5.373 12 12 12v5c-9.385-.01-16.99-7.615-17-17z" fill="#03aaa5"/><path d="m32 44c6.627 0 12-5.373 12-12h5c-.01 9.385-7.615 16.99-17 17z" fill="#039791"/><g fill="#82d1df"><path d="m14 60c0-5.523-4.477-10-10-10v-4c7.729.008 13.992 6.271 14 14z"/><path d="m60 50c-5.523 0-10 4.477-10 10h-4c.008-7.729 6.271-13.992 14-14z"/><path d="m4 14c5.523 0 10-4.477 10-10h4c-.008 7.729-6.271 13.992-14 14z"/></g><path d="m36 28 3.5-11.213c.872-2.788 3.583-4.58 6.49-4.287 2.914.292 5.218 2.596 5.51 5.51.293 2.907-1.499 5.618-4.287 6.49z" fill="#e6e6e6"/><path d="m45.964 13.5h7.071v2h-7.071z" fill="#f4e09c" transform="matrix(.707 -.707 .707 .707 4.245 39.249)"/><path d="m50.439 6.132h10.607v4.222h-10.607z" fill="#c69c6d" transform="matrix(.707 -.707 .707 .707 10.498 41.83)"/></svg>