<svg id="Capa_1" enable-background="new 0 0 512 512" height="512" viewBox="0 0 512 512" width="512" xmlns="http://www.w3.org/2000/svg"><g><path d="m459.5 1c-28.95 0-52.5 23.55-52.5 52.5v217.5h-51v30h51v125h30v-125h22.5c28.95 0 52.5-23.55 52.5-52.5v-195c0-28.95-23.55-52.5-52.5-52.5zm22.5 247.5c0 12.41-10.09 22.5-22.5 22.5h-22.5v-217.5c0-12.41 10.09-22.5 22.5-22.5s22.5 10.09 22.5 22.5z" fill="#e6e1ff"/><path d="m459.5 1c-14.68 0-27.96 6.05-37.5 15.79v409.21h15v-125h22.5c28.95 0 52.5-23.55 52.5-52.5v-195c0-28.95-23.55-52.5-52.5-52.5zm22.5 247.5c0 12.41-10.09 22.5-22.5 22.5h-22.5v-217.5c0-12.41 10.09-22.5 22.5-22.5s22.5 10.09 22.5 22.5z" fill="#c8bdff"/><path d="m361 256v60c0 8.28-6.72 15-15 15h-51v-90h51c8.28 0 15 6.72 15 15z" fill="#c8bdff"/><path d="m211 45v21h-30v-21c0-8.27-6.73-15-15-15h-30c-8.27 0-15 6.73-15 15v21h-30v-21c0-24.81 20.19-45 45-45h30c24.81 0 45 20.19 45 45z" fill="#3e5159"/><path d="m211 45v21h-30v-21c0-8.27-6.73-15-15-15h-15v-30h15c24.81 0 45 20.19 45 45z" fill="#293439"/><path d="m300 126v281h-74v75h-152v-75h-74v-281c0-35.84 29.16-65 65-65h170c35.84 0 65 29.16 65 65z" fill="#fea822"/><path d="m300 126v281h-74v75h-75v-421h84c35.84 0 65 29.16 65 65z" fill="#fd7c28"/><path d="m300 126v71h-60c-7.73 0-14 6.27-14 14 0 41.407-33.58 75-75 75-41.406 0-75-33.579-75-75 0-7.732-6.28-14-14-14h-62v-71c0-35.84 29.16-65 65-65h170c35.84 0 65 29.16 65 65z" fill="#fd7c28"/><path d="m300 126v71h-60c-7.73 0-14 6.27-14 14 0 41.41-33.58 75-75 75v-225h84c35.84 0 65 29.16 65 65z" fill="#ee5016"/><path d="m497 481h-16v-25c0-19.299-15.701-35-35-35h-50c-19.299 0-35 15.701-35 35v25h-14c-8.284 0-15 6.716-15 15s6.716 15 15 15h150c8.284 0 15-6.716 15-15s-6.716-15-15-15z" fill="#3e5159"/><path d="m512 496c0 8.28-6.72 15-15 15h-75v-90h24c19.3 0 35 15.7 35 35v25h16c8.28 0 15 6.72 15 15z" fill="#293439"/><circle cx="151" cy="166" fill="#ffd333" r="15"/><path d="m166 166c0 8.28-6.72 15-15 15v-30c8.28 0 15 6.72 15 15z" fill="#fea822"/><circle cx="151" cy="226" fill="#ffd333" r="15"/><path d="m166 226c0 8.28-6.72 15-15 15v-30c8.28 0 15 6.72 15 15z" fill="#fea822"/><path d="m75 391h-60c-8.284 0-15 6.716-15 15v91c0 8.284 6.716 15 15 15h60c8.284 0 15-6.716 15-15v-91c0-8.284-6.716-15-15-15z" fill="#3e5159"/><path d="m285 391h-59c-8.284 0-15 6.716-15 15v91c0 8.284 6.716 15 15 15h59c8.284 0 15-6.716 15-15v-91c0-8.284-6.716-15-15-15z" fill="#293439"/></g></svg>